<svg width="2297" height="1378" viewBox="0 0 2297 1378" fill="none" xmlns="http://www.w3.org/2000/svg">
<rect width="2297" height="1378" rx="120" fill="white"/>
<path d="M271.463 390.154C177.863 390.554 101.063 391.354 100.796 391.887C100.663 392.554 102.796 393.887 105.463 394.821C111.863 396.954 122.929 407.487 118.929 407.487C117.463 407.487 114.663 406.287 112.663 404.687C110.263 402.821 108.396 402.287 106.796 402.954C104.929 403.754 104.929 404.021 107.729 404.554C109.463 404.821 115.463 409.754 121.063 415.487C131.329 426.021 136.796 434.954 139.729 446.154C143.063 459.487 144.129 509.087 143.463 643.487C142.796 789.487 142.663 792.287 135.596 805.887C130.663 815.621 117.463 825.621 101.996 831.487C97.4626 833.221 97.996 834.154 104.129 834.687C112.263 835.487 118.529 837.087 117.729 838.287C117.329 838.954 115.063 839.487 112.529 839.487C109.996 839.487 107.596 840.021 107.196 840.821C106.663 841.621 107.863 842.154 109.729 842.154C111.596 842.154 113.196 842.687 113.196 843.487C113.196 845.354 601.729 845.354 605.329 843.354C607.196 842.421 607.863 841.087 607.463 839.487C607.063 837.754 607.863 836.287 609.863 834.954L613.063 832.821L613.196 761.754C613.196 722.687 612.796 690.287 612.396 689.754C611.863 689.221 609.063 694.287 606.263 701.087C597.063 723.087 586.263 734.021 566.529 741.087C550.796 746.821 550.263 746.821 411.863 746.821H279.196L278.929 708.421C278.796 687.354 278.929 669.221 279.463 668.154C280.529 665.221 435.596 665.221 449.863 668.021C466.929 671.354 474.929 676.687 483.463 690.021C486.663 694.821 488.529 696.821 488.929 695.487C489.196 694.421 490.529 692.687 491.729 691.754C493.596 690.154 493.863 682.821 493.596 612.421C493.463 569.754 492.796 534.687 492.263 534.554C491.729 534.421 489.863 537.221 488.129 540.821C484.263 548.954 475.196 558.287 467.596 562.021C454.129 568.554 447.729 568.821 360.529 568.554L279.196 568.154L278.929 529.487C278.796 504.154 279.196 490.287 280.129 489.221C281.196 487.887 303.729 487.487 388.396 487.487C447.063 487.621 497.863 488.154 501.196 488.687C504.396 489.354 507.329 490.687 507.729 491.621C507.996 492.554 510.396 495.754 513.196 498.687C517.596 503.754 526.396 515.887 546.929 546.154C551.196 552.421 558.263 562.554 562.663 568.821C567.063 575.087 571.729 581.621 572.929 583.487C584.929 601.621 596.396 616.821 597.329 615.887C597.996 615.221 598.663 587.754 598.796 554.821L599.196 494.821H675.196C749.863 494.821 751.329 494.821 760.529 497.754C773.063 501.754 781.329 507.487 787.196 516.287C793.196 525.354 794.263 528.954 795.329 544.154C795.996 554.421 795.729 557.354 793.196 564.821C791.596 569.621 789.063 574.954 787.463 576.687C782.796 581.621 774.396 586.821 767.863 588.687C764.529 589.621 760.129 591.087 757.863 591.887C755.329 592.687 729.463 593.487 689.863 593.754C654.663 594.021 625.729 594.554 625.463 594.821C625.196 595.087 625.729 597.487 626.796 600.287C628.129 604.154 628.129 605.354 626.929 605.754C625.996 606.154 625.196 606.954 625.196 607.754C625.196 608.554 626.129 608.821 627.196 608.421C629.729 607.354 631.463 610.154 629.196 611.487C628.263 612.021 627.863 613.754 628.263 615.354C628.529 616.821 645.329 642.821 665.463 673.087C685.596 703.354 705.463 733.221 709.596 739.487C713.729 745.754 717.996 752.021 718.929 753.487C719.996 754.954 723.063 759.754 725.863 764.154C728.529 768.554 733.863 776.687 737.596 782.154C748.529 798.287 753.596 805.887 763.863 821.487C769.196 829.487 774.263 836.554 775.063 837.087C776.396 838.021 934.396 837.621 946.263 836.687C948.529 836.554 950.529 835.887 950.529 835.487C950.529 834.154 942.529 832.687 941.063 833.621C939.196 834.687 931.729 832.821 932.663 831.354C933.063 830.687 936.263 830.154 939.729 830.154C943.196 830.154 947.196 829.354 948.529 828.287C950.929 826.554 950.929 826.421 948.396 822.421C947.063 820.287 941.063 814.821 935.196 810.421C912.929 793.754 892.929 770.687 864.929 729.487C862.929 726.554 859.863 722.287 858.263 719.887C845.596 702.287 837.596 689.221 838.796 688.154C839.063 688.021 842.129 686.821 845.729 685.621C849.463 684.287 857.863 680.554 864.396 677.087C874.263 672.021 878.796 668.554 888.663 658.687C898.929 648.154 901.863 644.287 908.263 631.621C912.396 623.487 915.863 615.887 915.863 614.821C915.863 613.621 916.396 611.754 917.063 610.421C922.796 599.087 927.863 568.554 927.863 545.354C927.863 483.754 911.329 443.221 876.396 418.821C861.996 408.821 835.863 398.021 819.863 395.487C814.396 394.554 808.129 393.221 805.863 392.554C801.729 391.087 584.129 388.821 491.196 389.221C464.129 389.354 365.196 389.754 271.463 390.154Z" fill="black"/>
<path d="M1092.53 506.954C1038.66 510.821 1009.73 519.754 989.596 538.687C984.93 542.954 981.196 546.954 981.196 547.621C981.196 548.154 979.863 550.821 978.13 553.221C968.53 567.354 963.996 598.821 968.396 620.154C972.263 638.687 979.596 650.154 994.93 661.621C1010.8 673.354 1029.06 679.887 1068.53 687.487C1079.73 689.621 1117.06 697.087 1129.2 699.621C1136.13 701.087 1146.66 703.087 1152.53 704.287C1163.33 706.287 1165.86 706.821 1181.2 710.821C1199.46 715.621 1215.46 724.554 1221.33 733.487C1231.2 748.554 1231.86 767.221 1222.8 780.554C1219.33 785.754 1208 795.487 1205.46 795.487C1204.8 795.487 1202.4 796.421 1200.13 797.487C1186.8 804.154 1163.2 807.487 1128.4 807.487C1067.73 807.487 1018.26 797.754 993.196 780.821C989.863 778.687 986.663 776.821 986.13 776.821C985.463 776.821 986.93 780.287 989.33 784.421C991.596 788.687 994.796 794.287 996.263 796.821C997.73 799.354 1001.33 806.021 1004.26 811.487C1007.2 816.954 1010.66 822.954 1011.86 824.821C1012.93 826.687 1015.2 830.421 1016.53 833.221C1022.13 844.021 1025.73 846.954 1034.13 848.021C1038.4 848.554 1046.13 849.487 1051.2 850.154C1100.66 856.287 1168.66 854.954 1202.53 847.087C1236.4 839.087 1263.6 821.221 1274.53 799.487C1282.53 783.487 1284.26 775.221 1284.4 752.821C1284.53 725.754 1281.6 715.754 1268.26 698.154C1256.53 682.821 1228.53 668.021 1200.53 662.154C1196.13 661.221 1190.8 660.021 1188.53 659.354C1184.93 658.287 1130.53 647.221 1117.86 644.821C1050.93 632.687 1031.73 624.554 1024.53 605.754C1019.46 592.421 1024.8 573.621 1035.86 565.887C1053.6 553.621 1114.26 548.821 1164.53 555.754C1176.26 557.354 1189.2 558.687 1193.2 558.687C1201.06 558.687 1199.6 559.221 1242.26 538.687C1253.46 533.221 1263.2 528.821 1263.86 528.821C1266.66 528.821 1265.06 526.021 1261.6 524.687C1248.66 519.621 1218.13 513.487 1185.86 509.487C1170.8 507.621 1106.93 505.887 1092.53 506.954Z" fill="black"/>
<path d="M1315.86 511.087C1316 511.754 1318.8 513.487 1322.26 515.221C1325.73 516.954 1329.73 519.754 1331.2 521.621C1332.66 523.354 1335.6 526.821 1337.73 529.221C1339.73 531.621 1343.06 536.821 1345.06 540.821L1348.53 548.154V683.487C1348.53 816.287 1348.53 818.954 1345.86 824.154C1342.8 830.287 1334.13 836.687 1325.2 839.354C1321.86 840.287 1318.26 841.354 1317.2 841.754C1315.46 842.287 1315.46 842.421 1317.2 843.354C1318.26 844.021 1321.6 844.954 1324.53 845.487C1327.46 846.021 1330.26 847.087 1330.8 847.887C1331.46 849.087 1343.86 849.621 1374.13 849.887C1414.53 850.287 1416.66 850.154 1422.93 847.487C1426.4 845.887 1432.26 844.287 1436 843.887C1442.8 843.087 1445.06 840.821 1439.2 840.821C1437.33 840.821 1434.8 840.287 1433.46 839.621C1432.26 838.954 1429.06 837.487 1426.53 836.287C1420.26 833.621 1413.73 827.354 1411.46 822.021C1406.66 810.421 1406.26 799.354 1406.8 672.154C1407.2 556.687 1407.33 547.621 1409.6 541.087C1413.46 529.754 1423.6 520.421 1438.93 513.754C1440.93 512.954 1442.53 511.754 1442.53 511.221C1442.53 510.687 1414 510.154 1379.2 510.154C1344.4 510.154 1315.86 510.554 1315.86 511.087ZM1419.2 846.154C1419.6 846.821 1419.33 847.487 1418.66 847.487C1417.86 847.487 1417.2 846.821 1417.2 846.154C1417.2 845.354 1417.46 844.821 1417.73 844.821C1418.13 844.821 1418.8 845.354 1419.2 846.154Z" fill="black"/>
<path d="M1472.66 511.354C1472.26 512.021 1473.6 512.821 1475.6 513.221C1477.6 513.621 1481.06 515.754 1483.2 518.021C1485.46 520.287 1488.26 522.154 1489.6 522.154C1490.93 522.154 1491.86 523.221 1491.86 524.554C1491.86 526.021 1493.06 528.154 1494.66 529.621C1499.46 533.887 1503.6 543.887 1505.06 554.687C1507.06 568.954 1507.06 806.554 1505.06 815.221C1503.46 822.021 1501.33 827.221 1499.2 829.621C1496.4 832.554 1487.06 837.621 1481.2 839.354C1477.86 840.287 1474.26 841.487 1473.2 841.887C1470.8 842.687 1481.86 846.554 1486.26 846.287C1488 846.287 1489.06 846.687 1488.66 847.354C1488.26 848.021 1488.8 848.954 1490 849.354C1491.2 849.754 1566 850.154 1656.4 850.154H1820.66L1823.6 846.154C1826.4 842.421 1826.53 841.221 1826.53 804.154C1826.53 783.221 1826 766.154 1825.33 766.154C1824.8 766.154 1823.2 768.954 1822 772.421C1813.86 795.087 1806.26 800.954 1781.6 803.487C1773.46 804.421 1730.4 804.821 1665.86 804.554L1563.2 804.154V754.554C1563.2 727.354 1563.6 704.687 1564 704.154C1564.53 703.754 1598.13 703.354 1638.66 703.487C1716 703.621 1717.73 703.621 1727.46 709.487C1732 712.287 1739.86 726.021 1739.86 731.354C1739.86 735.487 1741.73 734.821 1744.4 729.754C1746.4 725.887 1746.66 720.554 1746.26 676.154C1746 644.554 1745.33 626.954 1744.53 627.087C1743.86 627.221 1742.26 629.887 1741.06 633.087C1734.8 650.154 1729.73 654.421 1712.8 656.954C1703.6 658.287 1568 658.687 1564.66 657.354C1562.8 656.687 1562.53 651.354 1562.66 611.621C1562.66 586.954 1563.06 564.554 1563.6 561.754L1564.53 556.554L1662.4 556.687C1765.06 556.954 1769.2 557.221 1778.4 562.954C1784.8 566.954 1791.2 575.221 1793.73 582.821C1796.13 589.754 1800.13 594.287 1801.73 591.754C1802.8 590.021 1802.93 513.221 1801.86 511.487C1800.8 509.754 1473.73 509.621 1472.66 511.354Z" fill="black"/>
<path d="M1852.53 511.488C1852.13 512.154 1852.53 512.821 1853.73 512.821C1854.8 512.821 1857.33 514.154 1859.46 515.888C1861.46 517.488 1864.8 519.621 1866.93 520.554C1868.93 521.354 1870.53 523.088 1870.53 524.288C1870.53 525.488 1872.8 528.954 1875.6 532.154C1884.93 542.821 1884.53 535.754 1884.53 684.821C1884.53 812.554 1884.4 819.088 1882.13 823.354C1877.46 831.754 1867.06 838.688 1856.4 840.421C1850.26 841.488 1850.66 843.088 1857.6 844.821C1860.66 845.621 1865.06 847.221 1867.46 848.288C1873.46 850.954 2191.86 851.088 2191.86 848.421C2191.86 847.354 2193.06 845.488 2194.53 844.154C2197.06 841.888 2197.2 840.021 2197.2 804.954C2197.2 768.688 2196.4 761.488 2193.33 767.221C2192.53 768.688 2191.86 770.821 2191.86 771.754C2191.86 775.621 2184 789.888 2179.86 793.221C2167.86 803.354 2164.13 803.754 2045.2 803.221L1943.2 802.821L1942.8 679.488C1942.4 551.088 1942.53 545.888 1948 535.221C1951.86 527.621 1961.06 520.288 1974.93 513.754C1976.93 512.821 1978.13 511.621 1977.6 511.088C1976.13 509.621 1853.46 510.021 1852.53 511.488Z" fill="black"/>
</svg>
