<svg width="81" height="27" viewBox="0 0 81 27" fill="none" xmlns="http://www.w3.org/2000/svg">
<path d="M9.216 26.88C7.608 26.88 6.108 26.676 4.716 26.268C3.348 25.86 2.232 25.236 1.368 24.396C0.528 23.556 0.108 22.5 0.108 21.228C0.108 20.244 0.42 19.26 1.044 18.276C3.252 14.772 7.02 12.168 12.348 10.464C11.556 9.552 11.16 8.52 11.16 7.368C11.16 6.432 11.412 5.628 11.916 4.956C12.9 3.612 14.388 2.496 16.38 1.608C17.508 1.128 18.648 0.755999 19.8 0.491998C20.976 0.227998 22.164 0.0959988 23.364 0.0959988C24.852 0.0959988 25.98 0.335999 26.748 0.815998C27.54 1.296 27.936 1.968 27.936 2.832C27.936 3.432 27.768 3.984 27.432 4.488C27.12 4.968 26.724 5.364 26.244 5.676C25.764 5.964 25.272 6.108 24.768 6.108C24.024 6.108 23.652 5.928 23.652 5.568C23.652 5.352 23.808 5.244 24.12 5.244C24.216 5.244 24.336 5.268 24.48 5.316C24.648 5.34 24.768 5.352 24.84 5.352C25.344 5.352 25.788 5.088 26.172 4.56C26.556 4.032 26.748 3.504 26.748 2.976C26.748 2.208 26.376 1.656 25.632 1.32C24.912 0.983998 24.096 0.815998 23.184 0.815998C20.904 0.815998 18.672 1.548 16.488 3.012C14.184 4.524 13.032 6.228 13.032 8.124C13.032 8.82 13.272 9.468 13.752 10.068C14.592 9.804 15.372 9.624 16.092 9.528C16.836 9.408 17.544 9.348 18.216 9.348C20.52 9.348 21.672 9.792 21.672 10.68C21.672 11.088 21.504 11.448 21.168 11.76C20.832 12.048 20.4 12.276 19.872 12.444C19.368 12.588 18.852 12.66 18.324 12.66C17.772 12.66 17.16 12.588 16.488 12.444C15.816 12.3 15.168 12.108 14.544 11.868C13.92 11.628 13.392 11.352 12.96 11.04C10.704 11.688 8.7 12.696 6.948 14.064C5.22 15.408 3.936 16.92 3.096 18.6C2.64 19.512 2.412 20.4 2.412 21.264C2.412 22.32 2.712 23.184 3.312 23.856C3.912 24.528 4.704 25.02 5.688 25.332C6.696 25.644 7.8 25.8 9 25.8C10.992 25.8 12.972 25.476 14.94 24.828C16.908 24.204 18.588 23.268 19.98 22.02C21.876 20.34 22.824 18.576 22.824 16.728C22.824 15.264 22.116 14.532 20.7 14.532C19.956 14.532 19.128 14.724 18.216 15.108C17.304 15.468 16.44 15.96 15.624 16.584C14.832 17.208 14.172 17.892 13.644 18.636C13.116 19.38 12.852 20.136 12.852 20.904C12.852 21.672 13.188 22.14 13.86 22.308C14.1 22.404 14.22 22.524 14.22 22.668C14.22 22.86 14.04 22.956 13.68 22.956C12.408 22.956 11.772 22.248 11.772 20.832C11.772 19.896 12.048 19.008 12.6 18.168C13.152 17.328 13.86 16.584 14.724 15.936C15.612 15.288 16.572 14.784 17.604 14.424C18.636 14.04 19.632 13.848 20.592 13.848C21.72 13.848 22.596 14.1 23.22 14.604C23.844 15.084 24.156 15.876 24.156 16.98C24.156 19.212 22.92 21.312 20.448 23.28C18.888 24.552 17.16 25.464 15.264 26.016C13.368 26.592 11.352 26.88 9.216 26.88ZM18 11.868C19.296 11.868 19.944 11.496 19.944 10.752C19.944 10.416 19.296 10.248 18 10.248C17.424 10.248 16.824 10.284 16.2 10.356C15.6 10.428 14.988 10.524 14.364 10.644C15.396 11.46 16.608 11.868 18 11.868ZM32.2346 24.18C31.2026 24.18 30.4946 23.916 30.1106 23.388C29.7266 22.836 29.5346 22.104 29.5346 21.192C29.5346 20.184 29.8466 18.984 30.4706 17.592C30.7106 17.04 30.9626 16.548 31.2266 16.116C31.4906 15.66 31.7666 15.24 32.0546 14.856C31.9586 14.88 31.8746 14.892 31.8026 14.892C31.7306 14.892 31.6586 14.892 31.5866 14.892C31.0106 14.892 30.5306 14.484 30.1466 13.668L27.4826 17.124C26.0666 18.972 25.2026 19.896 24.8906 19.896C24.7706 19.896 24.7106 19.848 24.7106 19.752C24.7106 19.632 24.7706 19.476 24.8906 19.284C24.9626 19.14 25.1066 18.948 25.3226 18.708C26.2346 17.652 27.0746 16.608 27.8426 15.576C28.6106 14.544 29.2466 13.536 29.7506 12.552C30.3026 10.464 30.9986 9.42 31.8386 9.42C32.3906 9.42 32.6666 9.672 32.6666 10.176C32.6666 10.632 32.3666 11.232 31.7666 11.976C31.1906 12.72 30.9026 13.104 30.9026 13.128C30.9026 13.632 31.2746 13.884 32.0186 13.884C32.4506 13.884 32.9306 13.728 33.4586 13.416L34.3946 12.84C34.4426 12.816 34.5146 12.804 34.6106 12.804C34.8986 12.804 35.1506 12.924 35.3666 13.164C35.5826 13.404 35.6546 13.62 35.5826 13.812L33.0986 16.944C31.5626 18.912 30.7946 20.496 30.7946 21.696C30.7946 22.776 31.3226 23.316 32.3786 23.316C33.0986 23.316 33.8666 23.1 34.6826 22.668C35.5226 22.236 36.3266 21.708 37.0946 21.084C37.8866 20.436 38.5466 19.812 39.0746 19.212L39.9386 18.204C39.9866 18.156 40.0466 18.096 40.1186 18.024C40.1906 17.952 40.2506 17.916 40.2986 17.916C40.4666 17.916 40.5506 18 40.5506 18.168C40.5506 18.216 40.5266 18.3 40.4786 18.42C40.4306 18.54 40.3466 18.672 40.2266 18.816L39.0746 20.112C38.5226 20.736 37.8386 21.372 37.0226 22.02C36.2306 22.644 35.4026 23.16 34.5386 23.568C33.6986 23.976 32.9306 24.18 32.2346 24.18ZM43.1986 24.072C42.0706 24.072 41.2306 23.7 40.6786 22.956C40.1506 22.212 39.7186 21.18 39.3826 19.86C38.9506 20.292 38.6506 20.508 38.4826 20.508C38.3626 20.508 38.3026 20.412 38.3026 20.22C38.3026 20.076 38.3626 19.944 38.4826 19.824C38.4826 19.824 38.7826 19.452 39.3826 18.708C40.0066 17.964 41.0506 16.92 42.5146 15.576L47.0506 11.328C47.6746 10.728 48.1666 10.272 48.5266 9.96C48.9106 9.648 49.1866 9.492 49.3546 9.492C50.1226 9.492 50.5066 9.78 50.5066 10.356C50.5066 10.644 50.3506 10.98 50.0386 11.364C49.7986 11.652 49.6186 11.88 49.4986 12.048C49.4026 12.192 49.3426 12.276 49.3186 12.3C48.8866 13.044 48.4906 14.376 48.1306 16.296C47.8666 17.712 47.6386 18.876 47.4466 19.788C47.2546 20.7 47.0986 21.36 46.9786 21.768C47.9866 21.744 48.9826 21.432 49.9666 20.832C50.9506 20.232 52.0066 19.248 53.1346 17.88C53.1826 17.832 53.2546 17.76 53.3506 17.664C53.4466 17.568 53.5426 17.52 53.6386 17.52C53.7826 17.52 53.8546 17.58 53.8546 17.7C53.8546 17.82 53.8186 17.94 53.7466 18.06C53.6746 18.18 53.6026 18.288 53.5306 18.384C52.7866 19.272 52.0906 20.004 51.4426 20.58C50.7946 21.132 50.1106 21.576 49.3906 21.912C48.6706 22.224 47.8186 22.488 46.8346 22.704L45.6826 23.46C45.3706 23.676 44.9986 23.832 44.5666 23.928C44.1346 24.024 43.6786 24.072 43.1986 24.072ZM43.6306 22.236C44.1826 22.236 44.6386 22.104 44.9986 21.84C45.2626 21.696 45.5146 21.3 45.7546 20.652C46.0186 19.98 46.2706 19.152 46.5106 18.168C46.7026 17.328 46.8466 16.512 46.9426 15.72C47.0626 14.904 47.1706 14.124 47.2666 13.38L47.4106 12.156C46.8586 12.564 46.1626 13.152 45.3226 13.92C44.4826 14.688 43.6546 15.492 42.8386 16.332C42.0226 17.172 41.4946 17.796 41.2546 18.204C41.0146 18.588 40.8826 18.876 40.8586 19.068C40.7626 20.028 40.9906 20.796 41.5426 21.372C42.1186 21.948 42.8146 22.236 43.6306 22.236ZM59.9521 11.616C59.5441 11.616 59.1841 11.484 58.8721 11.22C58.5841 10.956 58.4401 10.656 58.4401 10.32C58.4401 9.648 58.8961 9.312 59.8081 9.312C60.1441 9.312 60.4801 9.432 60.8161 9.672C61.1521 9.888 61.3201 10.164 61.3201 10.5C61.3201 10.788 61.1641 11.052 60.8521 11.292C60.5401 11.508 60.2401 11.616 59.9521 11.616ZM53.2921 24.396C52.7641 24.396 52.3321 24.228 51.9961 23.892C51.6361 23.532 51.4561 22.908 51.4561 22.02C51.4561 21.516 51.5761 20.94 51.8161 20.292C52.0321 19.62 52.3081 18.948 52.6441 18.276C53.0041 17.604 53.3521 17.004 53.6881 16.476C55.0321 14.292 56.1361 13.188 57.0001 13.164C57.2161 13.164 57.4801 13.26 57.7921 13.452C58.1041 13.62 58.2601 13.812 58.2601 14.028C58.2601 14.028 57.3481 15.204 55.5241 17.556C53.7241 19.884 52.8241 21.54 52.8241 22.524C52.8241 23.292 53.1241 23.676 53.7241 23.676C54.1081 23.676 54.6001 23.52 55.2001 23.208C55.8241 22.872 56.4721 22.452 57.1441 21.948C57.8161 21.444 58.4521 20.904 59.0521 20.328C59.6761 19.752 60.1801 19.224 60.5641 18.744C60.8041 18.432 61.0081 18.216 61.1761 18.096C61.3681 17.976 61.4881 17.916 61.5361 17.916C61.6321 17.916 61.6801 17.988 61.6801 18.132C61.6801 18.252 61.5361 18.492 61.2481 18.852C60.9841 19.212 60.6121 19.632 60.1321 20.112C59.5561 20.688 58.9201 21.312 58.2241 21.984C57.5281 22.656 56.7721 23.232 55.9561 23.712C55.1401 24.168 54.2521 24.396 53.2921 24.396ZM61.9532 24.468C61.1852 24.468 60.4892 24.228 59.8652 23.748C59.2412 23.244 58.9292 22.584 58.9292 21.768C58.9292 20.064 59.9732 18.12 62.0612 15.936C64.1972 13.728 66.1052 12.624 67.7852 12.624C68.3372 12.624 68.7812 12.78 69.1172 13.092C69.4772 13.38 69.6572 13.74 69.6572 14.172C69.6572 15.516 68.5892 16.836 66.4532 18.132C64.5572 19.284 62.9612 19.86 61.6652 19.86C61.4732 19.86 61.3052 19.836 61.1612 19.788C60.8012 20.436 60.6212 21.12 60.6212 21.84C60.6212 23.088 61.2092 23.712 62.3852 23.712C63.5852 23.712 65.1332 22.908 67.0292 21.3C68.4932 20.124 69.7412 18.876 70.7732 17.556C70.9892 17.268 71.1812 17.124 71.3492 17.124C71.4932 17.124 71.5652 17.196 71.5652 17.34C71.5652 17.484 71.4692 17.688 71.2772 17.952C70.6052 18.84 69.8852 19.656 69.1172 20.4C68.3492 21.144 67.5212 21.828 66.6332 22.452C64.7852 23.796 63.2252 24.468 61.9532 24.468ZM62.1692 19.068C63.0812 19.068 64.2692 18.612 65.7332 17.7C66.2132 17.364 66.6812 16.992 67.1372 16.584C67.6172 16.152 68.0012 15.72 68.2892 15.288C68.6012 14.856 68.7572 14.472 68.7572 14.136C68.7572 13.824 68.5052 13.668 68.0012 13.668C67.2812 13.668 66.2732 14.208 64.9772 15.288C64.3532 15.816 63.7532 16.392 63.1772 17.016C62.6012 17.64 62.1092 18.3 61.7012 18.996C61.8452 19.044 62.0012 19.068 62.1692 19.068ZM72.0993 24.072C71.4033 24.072 70.7553 23.904 70.1553 23.568C69.5553 23.208 69.2553 22.62 69.2553 21.804C69.2553 20.676 69.6513 19.332 70.4433 17.772C71.2593 16.212 72.1833 14.592 73.2153 12.912C76.0233 8.352 78.0153 6.072 79.1913 6.072C79.4313 6.072 79.6713 6.168 79.9113 6.36C80.1753 6.528 80.3193 6.72 80.3433 6.936L77.8233 10.32C76.8393 11.64 75.9513 12.864 75.1593 13.992C74.3673 15.096 73.6833 16.092 73.1073 16.98C72.8193 17.436 72.4953 17.952 72.1353 18.528C71.7753 19.104 71.4513 19.704 71.1633 20.328C70.8993 20.928 70.7673 21.54 70.7673 22.164C70.7673 22.452 70.8513 22.716 71.0193 22.956C71.1873 23.172 71.4873 23.28 71.9193 23.28C72.6873 23.28 73.6953 22.872 74.9433 22.056C76.1913 21.216 77.4273 20.064 78.6513 18.6C78.7713 18.456 78.9033 18.324 79.0473 18.204C79.1913 18.084 79.3113 18.024 79.4073 18.024C79.5273 18.024 79.5873 18.096 79.5873 18.24C79.5873 18.312 79.5033 18.456 79.3353 18.672C79.1913 18.864 79.0713 19.02 78.9753 19.14L78.1113 20.112C77.6313 20.64 77.0553 21.216 76.3833 21.84C75.7353 22.464 75.0393 22.992 74.2953 23.424C73.5753 23.856 72.8433 24.072 72.0993 24.072Z" fill="#3C3939"/>
</svg>
