<svg width="2099" height="465" viewBox="0 0 2099 465" fill="none" xmlns="http://www.w3.org/2000/svg">
<path d="M172.463 0.979908C78.8626 1.37991 2.06263 2.17991 1.79596 2.71324C1.66263 3.37991 3.79596 4.71324 6.46263 5.64657C12.8626 7.77991 23.9293 18.3132 19.9293 18.3132C18.4626 18.3132 15.6626 17.1132 13.6626 15.5132C11.2626 13.6466 9.39596 13.1132 7.79596 13.7799C5.9293 14.5799 5.9293 14.8466 8.7293 15.3799C10.4626 15.6466 16.4626 20.5799 22.0626 26.3132C32.3293 36.8466 37.796 45.7799 40.7293 56.9799C44.0626 70.3132 45.1293 119.913 44.4626 254.313C43.796 400.313 43.6626 403.113 36.596 416.713C31.6626 426.447 18.4626 436.447 2.99596 442.313C-1.53737 444.047 -1.00404 444.98 5.1293 445.513C13.2626 446.313 19.5293 447.913 18.7293 449.113C18.3293 449.78 16.0626 450.313 13.5293 450.313C10.996 450.313 8.59596 450.847 8.19596 451.647C7.66263 452.447 8.86263 452.98 10.7293 452.98C12.596 452.98 14.196 453.513 14.196 454.313C14.196 456.18 502.729 456.18 506.329 454.18C508.196 453.247 508.863 451.913 508.463 450.313C508.063 448.58 508.863 447.113 510.863 445.78L514.063 443.647L514.196 372.58C514.196 333.513 513.796 301.113 513.396 300.58C512.863 300.047 510.063 305.113 507.263 311.913C498.063 333.913 487.263 344.847 467.529 351.913C451.796 357.647 451.263 357.647 312.863 357.647H180.196L179.929 319.247C179.796 298.18 179.929 280.047 180.463 278.98C181.529 276.047 336.596 276.047 350.863 278.847C367.929 282.18 375.929 287.513 384.463 300.847C387.663 305.647 389.529 307.647 389.929 306.313C390.196 305.247 391.529 303.513 392.729 302.58C394.596 300.98 394.863 293.647 394.596 223.247C394.463 180.58 393.796 145.513 393.263 145.38C392.729 145.247 390.863 148.047 389.129 151.647C385.263 159.78 376.196 169.113 368.596 172.847C355.129 179.38 348.729 179.647 261.529 179.38L180.196 178.98L179.929 140.313C179.796 114.98 180.196 101.113 181.129 100.047C182.196 98.7132 204.729 98.3132 289.396 98.3132C348.063 98.4466 398.863 98.9799 402.196 99.5132C405.396 100.18 408.329 101.513 408.729 102.447C408.996 103.38 411.396 106.58 414.196 109.513C418.596 114.58 427.396 126.713 447.929 156.98C452.196 163.247 459.263 173.38 463.663 179.647C468.063 185.913 472.729 192.447 473.929 194.313C485.929 212.447 497.396 227.647 498.329 226.713C498.996 226.047 499.663 198.58 499.796 165.647L500.196 105.647H576.196C650.863 105.647 652.329 105.647 661.529 108.58C674.063 112.58 682.329 118.313 688.196 127.113C694.196 136.18 695.263 139.78 696.329 154.98C696.996 165.247 696.729 168.18 694.196 175.647C692.596 180.447 690.063 185.78 688.463 187.513C683.796 192.447 675.396 197.647 668.863 199.513C665.529 200.447 661.129 201.913 658.863 202.713C656.329 203.513 630.463 204.313 590.863 204.58C555.663 204.847 526.729 205.38 526.463 205.647C526.196 205.913 526.729 208.313 527.796 211.113C529.129 214.98 529.129 216.18 527.929 216.58C526.996 216.98 526.196 217.78 526.196 218.58C526.196 219.38 527.129 219.647 528.196 219.247C530.729 218.18 532.463 220.98 530.196 222.313C529.263 222.847 528.863 224.58 529.263 226.18C529.529 227.647 546.329 253.647 566.463 283.913C586.596 314.18 606.463 344.047 610.596 350.313C614.729 356.58 618.996 362.847 619.929 364.313C620.996 365.78 624.063 370.58 626.863 374.98C629.529 379.38 634.863 387.513 638.596 392.98C649.529 409.113 654.596 416.713 664.863 432.313C670.196 440.313 675.263 447.38 676.063 447.913C677.396 448.847 835.396 448.447 847.263 447.513C849.529 447.38 851.529 446.713 851.529 446.313C851.529 444.98 843.529 443.513 842.063 444.447C840.196 445.513 832.729 443.647 833.663 442.18C834.063 441.513 837.263 440.98 840.729 440.98C844.196 440.98 848.196 440.18 849.529 439.113C851.929 437.38 851.929 437.247 849.396 433.247C848.063 431.113 842.063 425.647 836.196 421.247C813.929 404.58 793.929 381.513 765.929 340.313C763.929 337.38 760.863 333.113 759.263 330.713C746.596 313.113 738.596 300.047 739.796 298.98C740.063 298.847 743.129 297.647 746.729 296.447C750.463 295.113 758.863 291.38 765.396 287.913C775.263 282.847 779.796 279.38 789.663 269.513C799.929 258.98 802.863 255.113 809.263 242.447C813.396 234.313 816.863 226.713 816.863 225.647C816.863 224.447 817.396 222.58 818.063 221.247C823.796 209.913 828.863 179.38 828.863 156.18C828.863 94.5799 812.329 54.0466 777.396 29.6466C762.996 19.6466 736.863 8.84658 720.863 6.31324C715.396 5.37991 709.129 4.04657 706.863 3.37991C702.729 1.91324 485.129 -0.353425 392.196 0.0465745C365.129 0.179908 266.196 0.579908 172.463 0.979908Z" fill="black"/>
<path d="M993.529 117.78C939.663 121.647 910.729 130.58 890.596 149.513C885.929 153.78 882.196 157.78 882.196 158.447C882.196 158.98 880.863 161.647 879.129 164.047C869.529 178.18 864.996 209.647 869.396 230.98C873.263 249.513 880.596 260.98 895.929 272.447C911.796 284.18 930.063 290.713 969.529 298.313C980.729 300.447 1018.06 307.913 1030.2 310.447C1037.13 311.913 1047.66 313.913 1053.53 315.113C1064.33 317.113 1066.86 317.647 1082.2 321.647C1100.46 326.447 1116.46 335.38 1122.33 344.313C1132.2 359.38 1132.86 378.047 1123.8 391.38C1120.33 396.58 1109 406.313 1106.46 406.313C1105.8 406.313 1103.4 407.247 1101.13 408.313C1087.8 414.98 1064.2 418.313 1029.4 418.313C968.729 418.313 919.263 408.58 894.196 391.647C890.863 389.513 887.663 387.647 887.129 387.647C886.463 387.647 887.929 391.113 890.329 395.247C892.596 399.513 895.796 405.113 897.263 407.647C898.729 410.18 902.329 416.847 905.263 422.313C908.196 427.78 911.663 433.78 912.863 435.647C913.929 437.513 916.196 441.247 917.529 444.047C923.129 454.847 926.729 457.78 935.129 458.847C939.396 459.38 947.129 460.313 952.196 460.98C1001.66 467.113 1069.66 465.78 1103.53 457.913C1137.4 449.913 1164.6 432.047 1175.53 410.313C1183.53 394.313 1185.26 386.047 1185.4 363.647C1185.53 336.58 1182.6 326.58 1169.26 308.98C1157.53 293.647 1129.53 278.847 1101.53 272.98C1097.13 272.047 1091.8 270.847 1089.53 270.18C1085.93 269.113 1031.53 258.047 1018.86 255.647C951.929 243.513 932.729 235.38 925.529 216.58C920.463 203.247 925.796 184.447 936.863 176.713C954.596 164.447 1015.26 159.647 1065.53 166.58C1077.26 168.18 1090.2 169.513 1094.2 169.513C1102.06 169.513 1100.6 170.047 1143.26 149.513C1154.46 144.047 1164.2 139.647 1164.86 139.647C1167.66 139.647 1166.06 136.847 1162.6 135.513C1149.66 130.447 1119.13 124.313 1086.86 120.313C1071.8 118.447 1007.93 116.713 993.529 117.78Z" fill="black"/>
<path d="M1216.86 121.913C1217 122.58 1219.8 124.313 1223.26 126.046C1226.73 127.78 1230.73 130.58 1232.2 132.446C1233.66 134.18 1236.6 137.646 1238.73 140.046C1240.73 142.446 1244.06 147.646 1246.06 151.646L1249.53 158.98V294.313C1249.53 427.113 1249.53 429.78 1246.86 434.98C1243.8 441.113 1235.13 447.513 1226.2 450.18C1222.86 451.113 1219.26 452.18 1218.2 452.58C1216.46 453.113 1216.46 453.246 1218.2 454.18C1219.26 454.846 1222.6 455.78 1225.53 456.313C1228.46 456.846 1231.26 457.913 1231.8 458.713C1232.46 459.913 1244.86 460.446 1275.13 460.713C1315.53 461.113 1317.66 460.98 1323.93 458.313C1327.4 456.713 1333.26 455.113 1337 454.713C1343.8 453.913 1346.06 451.646 1340.2 451.646C1338.33 451.646 1335.8 451.113 1334.46 450.446C1333.26 449.78 1330.06 448.313 1327.53 447.113C1321.26 444.446 1314.73 438.18 1312.46 432.846C1307.66 421.246 1307.26 410.18 1307.8 282.98C1308.2 167.513 1308.33 158.446 1310.6 151.913C1314.46 140.58 1324.6 131.246 1339.93 124.58C1341.93 123.78 1343.53 122.58 1343.53 122.046C1343.53 121.513 1315 120.98 1280.2 120.98C1245.4 120.98 1216.86 121.38 1216.86 121.913ZM1320.2 456.98C1320.6 457.646 1320.33 458.313 1319.66 458.313C1318.86 458.313 1318.2 457.646 1318.2 456.98C1318.2 456.18 1318.46 455.646 1318.73 455.646C1319.13 455.646 1319.8 456.18 1320.2 456.98Z" fill="black"/>
<path d="M1373.66 122.18C1373.26 122.847 1374.6 123.647 1376.6 124.047C1378.6 124.447 1382.06 126.58 1384.2 128.847C1386.46 131.113 1389.26 132.98 1390.6 132.98C1391.93 132.98 1392.86 134.047 1392.86 135.38C1392.86 136.847 1394.06 138.98 1395.66 140.447C1400.46 144.713 1404.6 154.713 1406.06 165.513C1408.06 179.78 1408.06 417.38 1406.06 426.047C1404.46 432.847 1402.33 438.047 1400.2 440.447C1397.4 443.38 1388.06 448.447 1382.2 450.18C1378.86 451.113 1375.26 452.313 1374.2 452.713C1371.8 453.513 1382.86 457.38 1387.26 457.113C1389 457.113 1390.06 457.513 1389.66 458.18C1389.26 458.847 1389.8 459.78 1391 460.18C1392.2 460.58 1467 460.98 1557.4 460.98H1721.66L1724.6 456.98C1727.4 453.247 1727.53 452.047 1727.53 414.98C1727.53 394.047 1727 376.98 1726.33 376.98C1725.8 376.98 1724.2 379.78 1723 383.247C1714.86 405.913 1707.26 411.78 1682.6 414.313C1674.46 415.247 1631.4 415.647 1566.86 415.38L1464.2 414.98V365.38C1464.2 338.18 1464.6 315.513 1465 314.98C1465.53 314.58 1499.13 314.18 1539.66 314.313C1617 314.447 1618.73 314.447 1628.46 320.313C1633 323.113 1640.86 336.847 1640.86 342.18C1640.86 346.313 1642.73 345.647 1645.4 340.58C1647.4 336.713 1647.66 331.38 1647.26 286.98C1647 255.38 1646.33 237.78 1645.53 237.913C1644.86 238.047 1643.26 240.713 1642.06 243.913C1635.8 260.98 1630.73 265.247 1613.8 267.78C1604.6 269.113 1469 269.513 1465.66 268.18C1463.8 267.513 1463.53 262.18 1463.66 222.447C1463.66 197.78 1464.06 175.38 1464.6 172.58L1465.53 167.38L1563.4 167.513C1666.06 167.78 1670.2 168.047 1679.4 173.78C1685.8 177.78 1692.2 186.047 1694.73 193.647C1697.13 200.58 1701.13 205.113 1702.73 202.58C1703.8 200.847 1703.93 124.047 1702.86 122.313C1701.8 120.58 1374.73 120.447 1373.66 122.18Z" fill="black"/>
<path d="M1753.53 122.313C1753.13 122.98 1753.53 123.647 1754.73 123.647C1755.8 123.647 1758.33 124.98 1760.46 126.713C1762.46 128.313 1765.8 130.447 1767.93 131.38C1769.93 132.18 1771.53 133.913 1771.53 135.113C1771.53 136.313 1773.8 139.78 1776.6 142.98C1785.93 153.647 1785.53 146.58 1785.53 295.647C1785.53 423.38 1785.4 429.913 1783.13 434.18C1778.46 442.58 1768.06 449.513 1757.4 451.247C1751.26 452.313 1751.66 453.913 1758.6 455.647C1761.66 456.447 1766.06 458.047 1768.46 459.113C1774.46 461.78 2092.86 461.913 2092.86 459.247C2092.86 458.18 2094.06 456.313 2095.53 454.98C2098.06 452.713 2098.2 450.847 2098.2 415.78C2098.2 379.513 2097.4 372.313 2094.33 378.047C2093.53 379.513 2092.86 381.647 2092.86 382.58C2092.86 386.447 2085 400.713 2080.86 404.047C2068.86 414.18 2065.13 414.58 1946.2 414.047L1844.2 413.647L1843.8 290.313C1843.4 161.913 1843.53 156.713 1849 146.047C1852.86 138.447 1862.06 131.113 1875.93 124.58C1877.93 123.647 1879.13 122.447 1878.6 121.913C1877.13 120.447 1754.46 120.847 1753.53 122.313Z" fill="black"/>
</svg>
